<?xml version="1.0" standalone="no"?>
<!DOCTYPE svg PUBLIC "-//W3C//DTD SVG 20010904//EN"
 "http://www.w3.org/TR/2001/REC-SVG-20010904/DTD/svg10.dtd">
<svg version="1.0" xmlns="http://www.w3.org/2000/svg"
 width="172.000000pt" height="172.000000pt" viewBox="0 0 172.000000 172.000000"
 preserveAspectRatio="xMidYMid meet">

<g transform="translate(0.000000,172.000000) scale(0.100000,-0.100000)"
fill="#000000" stroke="none">
<path d="M852 1630 c-17 -27 -84 -42 -148 -34 -72 9 -116 -1 -148 -33 -25 -24
-26 -31 -26 -129 l0 -104 335 0 335 0 0 93 c0 53 -6 102 -13 117 -20 41 -70
60 -142 53 -81 -7 -132 3 -159 32 -21 23 -22 23 -34 5z m50 -30 c27 -16 51
-20 134 -20 95 0 102 -1 125 -26 21 -23 24 -36 27 -120 l4 -94 -326 0 -326 0
0 85 c0 46 5 95 11 109 20 42 64 56 160 50 72 -5 89 -3 119 15 19 11 36 20 37
20 2 1 17 -8 35 -19z"/>
<path d="M838 1587 c-23 -17 -43 -20 -131 -21 -140 -1 -147 -7 -147 -123 l0
-83 305 0 305 0 1 28 c3 95 -3 128 -27 152 -23 23 -31 25 -123 25 -85 0 -103
3 -128 21 l-28 21 -27 -20z m47 -8 c4 -6 16 -14 26 -18 17 -6 15 -9 -16 -23
-19 -8 -38 -12 -41 -7 -3 5 2 9 10 9 9 0 16 7 16 15 0 8 -4 15 -10 15 -5 0
-10 5 -10 10 0 13 17 13 25 -1z m-35 -25 c0 -11 -5 -14 -16 -10 -9 3 -21 6
-27 7 -7 0 -3 4 8 9 29 13 35 12 35 -6z m-96 -4 c22 0 37 -3 33 -6 -8 -8 -91
-9 -104 -1 -16 10 -83 -15 -94 -34 -8 -16 -5 -17 25 -12 18 3 44 0 57 -6 23
-12 23 -11 5 3 -11 9 -29 16 -40 17 -15 0 -13 3 9 10 18 5 33 5 39 -1 6 -6 14
-5 23 1 17 15 17 -2 -1 -27 -8 -10 -13 -28 -10 -40 8 -30 -22 -56 -60 -52 -24
2 -32 8 -34 27 -4 23 19 51 40 51 17 0 7 -18 -12 -23 -22 -6 -24 -14 -11 -36
6 -9 18 -11 36 -7 38 10 32 56 -9 71 -24 8 -31 6 -47 -14 -24 -30 -24 -46 2
-72 15 -15 30 -20 50 -17 17 3 32 1 35 -4 3 -4 -22 -8 -55 -8 l-61 0 0 73 c0
96 25 121 110 111 19 -2 53 -4 74 -4z m355 -1 c42 -15 51 -35 51 -113 l0 -66
-32 0 -33 0 25 13 c35 18 40 70 8 91 -13 9 -33 13 -46 9 -23 -6 -39 -43 -27
-62 8 -13 52 -14 59 -2 9 14 -4 39 -22 44 -12 3 -11 5 5 6 44 2 51 -64 8 -75
-35 -9 -60 10 -95 71 -17 30 -41 62 -53 70 -21 15 -21 15 -1 15 13 0 30 -16
48 -45 l29 -44 25 19 c13 11 35 20 48 20 28 0 32 18 7 26 -10 3 -25 9 -34 14
-9 4 -21 5 -28 1 -7 -5 -24 -5 -39 -2 l-27 5 30 7 c46 10 59 10 94 -2z m-371
-54 c-11 -20 -23 -34 -25 -31 -7 7 26 66 37 66 5 0 0 -16 -12 -35z m110 23
c28 -28 1 -75 -38 -63 -28 9 -25 23 4 18 28 -6 42 20 21 37 -25 21 -50 8 -53
-27 -3 -28 0 -33 25 -38 15 -4 34 -8 41 -11 15 -4 16 -44 1 -44 -5 0 -7 4 -4
10 3 5 -10 16 -29 24 -19 8 -40 24 -46 37 l-13 23 -14 -27 c-7 -15 -16 -27
-19 -27 -7 0 26 62 44 83 17 20 62 23 80 5z m119 -10 c11 -13 28 -37 36 -54 9
-18 30 -43 47 -58 l32 -26 -119 2 c-65 1 -101 3 -80 5 29 3 37 8 35 20 -4 23
-28 28 -28 7 0 -14 -3 -15 -12 -6 -16 16 8 42 39 42 21 0 23 -3 14 -14 -17
-20 23 -46 70 -46 l38 0 -32 49 c-29 44 -33 48 -41 30 -5 -10 -13 -19 -18 -19
-4 0 -3 9 4 20 10 15 10 25 2 38 -15 23 -58 22 -62 -2 -4 -21 16 -38 36 -31 7
3 10 0 7 -5 -10 -17 -44 -11 -54 8 -13 25 12 62 43 62 12 0 32 -10 43 -22z
m85 11 c2 5 16 7 32 4 28 -6 28 -6 -14 -20 -36 -12 -44 -12 -51 -1 -14 22 -10
29 10 18 11 -5 21 -6 23 -1z m-266 -106 c-6 -7 -66 -22 -66 -17 0 3 8 16 18
29 16 21 18 22 35 7 9 -8 15 -17 13 -19z m224 -12 c0 -9 -28 -7 -53 4 -17 7
-17 8 0 27 17 19 18 19 35 -2 10 -12 18 -25 18 -29z m-190 -16 c11 -13 5 -15
-46 -14 -33 1 -48 4 -34 6 14 3 29 9 35 14 13 13 31 11 45 -6z"/>
<path d="M294 1291 c-40 -24 -54 -66 -47 -135 8 -73 -3 -123 -34 -154 -23 -23
-23 -26 -8 -35 31 -17 46 -71 39 -145 -8 -79 6 -134 39 -157 16 -11 49 -15
124 -15 l103 0 0 330 0 330 -92 0 c-74 0 -99 -4 -124 -19z m206 -317 l0 -314
-91 0 c-50 0 -99 5 -110 11 -35 18 -47 64 -41 155 4 71 2 87 -16 118 -15 25
-17 33 -6 29 8 -3 14 0 14 6 0 6 -4 11 -9 11 -6 0 -3 12 5 28 9 18 14 59 14
123 0 140 22 159 176 151 l64 -4 0 -314z"/>
<path d="M299 1254 c-22 -24 -24 -34 -24 -124 0 -66 -4 -103 -12 -111 -18 -18
-16 -34 2 -19 8 7 15 20 15 29 0 9 9 2 21 -18 11 -18 17 -36 13 -40 -4 -3 -9
0 -11 7 -7 17 -33 15 -33 -4 0 -8 -4 -12 -10 -9 -14 9 -12 -9 3 -24 8 -8 12
-46 12 -116 0 -136 8 -146 124 -153 l81 -5 0 307 0 306 -78 0 c-71 0 -81 -2
-103 -26z m170 -16 c0 -30 -1 -31 -9 -11 -17 43 -91 39 -103 -6 -7 -28 20 -63
46 -59 31 4 38 58 8 58 -11 0 -25 -8 -31 -17 -9 -16 -10 -15 -8 7 3 21 8 25
38 25 29 0 36 -4 38 -23 2 -13 -4 -35 -13 -49 -16 -24 -16 -25 -1 -20 9 4 16
5 16 3 0 -7 -82 -57 -87 -52 -3 2 9 12 27 21 18 9 30 19 27 21 -7 8 -59 -21
-96 -52 -22 -18 -31 -21 -31 -11 0 8 20 25 45 38 42 22 57 39 36 39 -13 0 -34
57 -27 75 3 9 0 15 -10 15 -8 0 -17 -8 -20 -17 -3 -10 -9 -25 -14 -34 -4 -9
-5 -21 -1 -28 5 -7 6 -24 3 -39 -6 -26 -6 -26 -13 8 -21 93 18 140 117 140
l64 0 -1 -32z m-118 -84 c7 -9 4 -16 -12 -24 -19 -11 -21 -10 -15 6 4 9 2 20
-3 24 -6 3 -7 16 -4 30 l6 24 9 -24 c5 -13 13 -29 19 -36z m119 -55 c0 -82 -2
-89 -15 -75 -13 12 -14 20 -5 37 7 11 11 39 9 62 -2 50 -1 67 6 67 3 0 5 -41
5 -91z m-25 4 c0 -10 -6 -27 -12 -38 -11 -18 -12 -19 -18 -2 -4 9 -11 17 -17
17 -5 0 0 -13 12 -30 12 -16 18 -30 13 -30 -4 0 1 -8 12 -16 20 -15 19 -15 -5
-12 -18 2 -26 10 -28 28 -7 48 -46 67 -72 35 -18 -22 -3 -57 23 -53 17 2 22 9
20 32 -2 20 1 26 8 19 19 -19 6 -58 -19 -61 -29 -4 -52 14 -52 43 0 28 32 57
53 49 10 -3 29 3 44 15 34 25 40 26 38 4z m22 -135 c-3 -7 -5 -2 -5 12 0 14 2
19 5 13 2 -7 2 -19 0 -25z m-17 -9 c0 -5 -4 -8 -9 -6 -5 1 -8 -2 -7 -8 0 -5 9
-10 19 -9 14 0 17 -8 16 -55 -1 -32 -4 -44 -6 -27 -3 16 -12 40 -20 53 l-15
23 -24 -25 c-13 -14 -29 -25 -35 -25 -7 0 -4 -7 7 -15 25 -19 11 -19 -25 0
-29 15 -42 34 -40 63 0 10 5 5 11 -10 15 -42 78 -36 78 7 0 26 27 58 41 50 5
-4 9 -10 9 -16z m-62 -13 c2 -10 -1 -23 -8 -30 -8 -8 -10 -7 -5 5 7 20 -19 43
-40 35 -10 -3 -13 -2 -10 5 11 17 59 6 63 -15z m-88 7 c0 -10 -20 -40 -20 -31
0 3 -3 13 -6 22 -4 11 -1 16 10 16 9 0 16 -3 16 -7z m146 -101 l3 -22 -29 20
c-28 20 -28 22 -12 38 15 16 18 16 26 3 6 -9 11 -26 12 -39z m-141 -4 c-1 -24
-4 -49 -8 -55 -10 -15 19 -79 38 -87 14 -5 16 -1 11 27 -3 17 -3 25 0 17 20
-48 68 -65 98 -34 27 26 19 64 -20 100 -44 42 -32 45 14 4 28 -26 32 -36 32
-80 l0 -50 -73 0 c-107 0 -115 12 -109 158 2 63 18 63 17 0z m50 1 c20 -12 34
-23 32 -26 -7 -7 -52 14 -66 31 -18 22 -9 20 34 -5z m-10 -53 c-8 -11 -16 -32
-16 -46 -1 -23 -2 -23 -8 5 -4 17 -4 34 0 39 5 5 4 17 -2 27 -9 17 -7 18 15 8
23 -11 24 -14 11 -33z m96 -18 c12 -22 -12 -68 -36 -68 -18 0 -46 40 -38 53 3
6 10 0 15 -12 9 -26 41 -25 46 2 4 21 -15 47 -34 47 -7 0 -20 -8 -30 -17 -13
-13 -16 -14 -12 -3 2 8 15 20 28 27 26 13 43 5 61 -29z"/>
<path d="M530 980 l0 -330 338 0 337 0 0 328 0 327 -337 3 -338 2 0 -330z
m653 310 c4 0 7 -142 7 -315 l0 -315 -325 0 -325 0 0 314 c0 242 3 316 13 320
9 4 360 2 630 -4z"/>
<path d="M562 978 l3 -303 120 -3 c158 -4 165 -2 165 46 0 46 -14 62 -55 62
-65 0 -91 63 -61 147 20 58 128 283 135 283 11 -1 141 -325 141 -351 0 -44
-34 -77 -83 -81 l-42 -3 -3 -47 -3 -48 145 0 146 0 0 300 0 300 -305 0 -305 0
2 -302z m537 286 l61 -7 0 -283 0 -284 -135 0 -135 0 0 35 c0 31 3 35 28 36
15 1 50 2 79 4 88 3 130 49 117 124 -6 34 -101 277 -129 331 l-13 25 -10 -25
c-5 -14 -16 -41 -25 -60 l-15 -35 -21 48 c-11 27 -21 53 -21 58 0 24 -19 4
-46 -47 l-29 -56 -25 56 c-14 30 -27 56 -30 56 -3 0 -35 -71 -72 -158 -79
-185 -87 -236 -42 -277 33 -30 82 -45 152 -45 l53 0 -3 -32 -3 -33 -127 -3
-128 -3 0 291 0 290 229 0 c125 0 256 -3 290 -6z m-346 -256 c-52 -115 -60
-173 -29 -207 19 -21 19 -21 -3 -21 -30 0 -78 26 -91 49 -22 43 -2 113 95 326
l27 60 23 -52 24 -53 -46 -102z m308 0 c59 -146 50 -209 -33 -227 -41 -10 -45
-6 -23 23 26 34 17 88 -30 197 l-46 103 23 55 22 55 24 -54 c13 -30 42 -98 63
-152z"/>
<path d="M1228 1305 c-4 -4 -7 -153 -8 -331 l0 -324 108 0 c102 0 111 2 136
25 29 27 29 24 30 158 1 95 2 99 29 123 23 20 26 25 12 30 -32 12 -45 59 -45
158 0 91 -1 97 -29 128 -28 31 -31 32 -127 36 -55 2 -102 1 -106 -3z m228 -42
c23 -24 24 -32 22 -123 -2 -79 1 -102 16 -124 22 -34 16 -43 -10 -15 -15 17
-19 38 -21 103 -1 44 -2 91 -2 104 -1 13 -12 34 -26 47 -22 22 -32 25 -105 25
l-80 0 2 -302 3 -303 66 -3 c123 -5 152 27 142 159 -4 59 -2 82 11 107 9 18
21 32 27 32 5 0 3 -10 -5 -22 -12 -17 -16 -48 -16 -126 0 -101 -1 -104 -29
-133 -28 -28 -33 -29 -120 -29 l-91 0 0 315 0 315 95 0 c91 0 97 -1 121 -27z
m-31 -18 c21 -20 25 -34 25 -80 0 -30 -4 -55 -9 -55 -6 0 -9 22 -9 49 1 47
-13 81 -33 81 -5 0 -9 -13 -9 -30 0 -16 -9 -39 -20 -50 -19 -19 -19 -19 22
-42 23 -13 44 -30 48 -38 11 -23 41 -112 33 -97 -7 11 -43 8 -43 -4 0 -6 9
-13 19 -16 18 -5 19 -33 2 -33 -15 0 -32 53 -21 64 12 12 13 56 2 74 -5 7 -37
32 -73 55 -58 38 -64 45 -64 77 0 29 4 36 23 38 27 4 52 -14 52 -36 0 -13 -2
-13 -13 2 -17 23 -52 17 -52 -8 0 -48 66 -44 73 3 8 52 -63 81 -92 39 l-16
-22 0 27 c0 27 1 27 65 27 57 0 69 -3 90 -25z m-6 -81 c-5 -6 -6 -19 -3 -29 6
-15 4 -16 -14 -6 -17 9 -20 16 -13 29 5 9 13 26 16 37 l7 20 8 -20 c4 -11 4
-25 -1 -31z m-59 -58 c66 -39 78 -56 62 -88 -7 -12 -10 -15 -7 -5 8 28 -13 57
-40 57 -26 0 -45 -25 -45 -59 0 -15 -6 -21 -22 -21 -14 0 -18 3 -12 8 6 4 14
17 18 29 4 12 18 31 32 42 15 12 21 22 14 26 -6 4 -20 -5 -32 -20 -11 -14 -23
-24 -25 -21 -11 11 -12 66 -2 66 7 0 6 6 -2 17 -13 15 -15 13 -20 -18 -6 -31
-6 -30 -8 15 -1 48 -1 48 17 26 10 -12 42 -37 72 -54z m-67 -55 c3 -12 -1 -22
-9 -25 -10 -4 -14 3 -14 25 0 32 14 32 23 0z m92 -52 c17 -8 17 -8 -5 -6 -20
2 -25 8 -27 32 -2 27 -1 27 5 6 4 -13 16 -28 27 -32z m-108 -21 c-3 -8 -6 -5
-6 6 -1 11 2 17 5 13 3 -3 4 -12 1 -19z m53 -29 c0 -52 51 -79 81 -43 16 20 0
49 -27 49 -15 0 -19 -6 -17 -29 2 -20 -1 -26 -8 -19 -6 6 -9 21 -7 34 2 19 9
24 33 24 23 0 32 -6 40 -29 9 -25 6 -31 -23 -57 -18 -16 -38 -29 -45 -29 -8 0
-7 3 3 10 12 7 10 12 -12 30 -15 11 -30 31 -34 43 -4 12 -12 25 -18 29 -6 5
-2 8 12 8 16 0 22 -6 22 -21z m-37 -45 c-9 -23 -23 -16 -23 12 0 22 2 24 14
14 8 -6 12 -18 9 -26z m32 -49 c-11 -8 -23 -15 -26 -15 -10 0 -7 34 4 48 8 11
13 10 26 -2 14 -14 13 -17 -4 -31z m125 -11 c0 -30 -4 -53 -8 -50 -4 2 -7 26
-6 53 2 54 2 53 9 53 3 0 5 -25 5 -56z m-30 16 c0 -11 -59 -44 -66 -37 -3 3
10 14 28 25 40 25 38 24 38 12z m-6 -44 c-3 -8 -1 -17 4 -20 5 -3 7 -17 5 -31
-5 -24 -6 -24 -24 12 -15 28 -16 39 -6 45 18 12 27 10 21 -6z m-24 -35 c0 -5
3 -18 6 -28 3 -10 -3 -3 -15 15 -28 44 -66 42 -66 -3 0 -38 31 -47 44 -13 l10
23 0 -22 c1 -29 -32 -48 -59 -33 -26 14 -26 54 0 80 19 19 22 19 50 5 17 -9
30 -20 30 -24z m-93 -68 c23 -18 53 -16 75 4 17 15 18 15 18 -2 0 -17 1 -17
20 0 11 10 20 26 20 36 0 10 5 21 10 24 16 10 12 -38 -6 -63 -13 -19 -24 -22
-90 -22 l-74 0 2 58 c1 45 2 49 5 17 2 -22 11 -46 20 -52z"/>
<path d="M1315 1110 c3 -5 11 -10 16 -10 6 0 7 5 4 10 -3 6 -11 10 -16 10 -6
0 -7 -4 -4 -10z"/>
<path d="M530 535 c0 -52 5 -105 11 -119 19 -42 71 -60 154 -53 83 7 138 -5
159 -35 13 -18 16 -19 21 -6 12 31 81 49 176 46 85 -3 90 -2 116 25 26 26 28
33 31 132 l4 105 -336 0 -336 0 0 -95z m655 -12 c0 -83 -2 -94 -24 -117 -23
-25 -30 -26 -125 -26 -83 0 -108 -4 -140 -21 -37 -19 -39 -20 -58 -2 -17 15
-38 18 -127 18 -157 1 -171 14 -171 161 l0 84 323 -2 322 -3 0 -92z"/>
<path d="M560 517 c0 -116 7 -122 147 -123 88 -2 109 -5 132 -22 l27 -20 29
22 c26 18 41 21 118 19 138 -4 167 22 167 148 l0 59 -310 0 -310 0 0 -83z
m136 52 l19 -21 -38 18 c-35 17 -41 17 -65 3 -33 -18 -39 -42 -17 -75 20 -31
61 -30 82 2 12 19 12 24 -3 38 -22 23 -59 17 -59 -9 0 -12 9 -21 25 -25 16 -4
21 -8 13 -13 -20 -13 -53 11 -53 38 0 36 32 50 70 30 36 -19 38 -44 6 -74 -18
-17 -33 -22 -56 -19 -19 3 -29 1 -27 -6 5 -17 75 -48 88 -40 15 9 97 9 106 0
4 -3 -18 -7 -48 -8 -155 -6 -169 3 -169 109 l0 73 53 0 c42 0 58 -5 73 -21z
m121 4 c-15 -15 -21 -16 -38 -5 -11 7 -23 11 -27 8 -5 -3 -14 -1 -22 5 -10 6
4 9 45 9 56 0 58 -1 42 -17z m66 10 c-7 -2 -19 -2 -25 0 -7 3 -2 5 12 5 14 0
19 -2 13 -5z m187 3 c0 -2 -12 -12 -27 -22 -24 -15 -26 -15 -14 -1 12 15 10
17 -23 17 -21 0 -46 -5 -57 -10 -15 -8 -23 -7 -35 5 -14 13 -7 15 70 15 47 0
86 -2 86 -4z m90 -62 c0 -36 -5 -74 -10 -84 -13 -25 -74 -41 -125 -33 -36 6
-37 7 -15 13 14 4 31 4 39 0 8 -5 22 -4 30 0 9 5 24 11 34 14 25 8 21 26 -7
26 -13 0 -35 9 -49 20 -28 22 -37 25 -37 10 0 -19 -45 -80 -58 -80 -9 0 -5 11
11 30 14 17 36 48 48 69 25 45 58 66 87 57 42 -14 33 -77 -11 -75 -15 1 -17 3
-5 6 20 5 32 33 19 46 -14 14 -55 4 -59 -16 -8 -39 56 -65 86 -35 20 20 14 64
-10 81 l-23 16 28 0 c27 1 27 0 27 -65z m-371 26 c2 0 -4 -9 -14 -20 -17 -19
-18 -19 -36 4 -26 33 -24 36 13 25 18 -5 35 -9 37 -9z m71 6 c0 -18 -20 -33
-50 -38 -21 -2 -25 -8 -25 -38 0 -30 3 -35 26 -38 17 -2 29 3 32 12 8 20 -19
46 -41 40 -9 -2 -7 1 5 7 18 9 26 9 38 -1 32 -27 11 -70 -35 -70 -30 0 -46 16
-78 75 l-22 40 23 -28 24 -28 32 30 c18 17 40 31 48 31 8 0 11 5 8 10 -3 6 -1
10 4 10 6 0 11 -6 11 -14z m42 -6 c5 0 24 -10 41 -22 30 -21 31 -21 14 -1 -17
20 -17 21 0 28 21 9 53 13 53 7 0 -2 -9 -17 -21 -33 -11 -16 -19 -35 -16 -42
2 -6 11 3 21 21 9 17 19 32 22 32 7 0 -15 -40 -43 -77 -31 -43 -81 -44 -95 -3
-12 35 39 70 57 40 4 -6 -4 -9 -17 -7 -19 2 -23 -3 -23 -23 0 -20 5 -25 24
-25 57 0 51 67 -7 73 -31 3 -48 25 -35 45 5 8 8 8 11 -1 2 -7 8 -12 14 -12z
m-149 -120 c-8 -9 -43 45 -43 65 0 14 7 8 24 -20 12 -22 21 -42 19 -45z m-33
7 c0 -5 -6 -5 -13 2 -8 6 -17 7 -23 1 -5 -5 -24 -5 -44 0 l-35 8 31 1 c17 1
37 8 45 17 12 14 14 14 26 -2 7 -10 13 -22 13 -27z m380 12 c8 0 2 -5 -15 -10
-19 -5 -31 -5 -33 1 -2 6 -11 6 -23 0 -22 -12 -24 -7 -7 19 10 16 14 17 37 5
14 -8 33 -14 41 -15z m-202 -59 c-28 -15 -34 -15 -62 -1 l-31 16 30 15 c26 13
34 13 62 1 l31 -14 -30 -17z"/>
<path d="M850 405 c0 -8 7 -15 15 -15 8 0 15 7 15 15 0 8 -7 15 -15 15 -8 0
-15 -7 -15 -15z"/>
<path d="M360 520 c-8 -4 -28 -13 -44 -19 -25 -10 -28 -15 -22 -41 4 -22 2
-30 -9 -30 -8 0 -15 -4 -15 -8 0 -5 20 -8 45 -7 55 1 62 -21 10 -31 -19 -3
-38 -11 -41 -16 -4 -7 6 -7 27 -3 51 12 61 11 66 -2 2 -7 -8 -13 -24 -15 -26
-3 -29 -7 -34 -53 -7 -59 -4 -67 12 -31 7 14 20 26 30 26 10 0 22 7 27 16 8
14 10 14 16 -2 5 -13 1 -23 -11 -31 -43 -29 -58 -42 -52 -47 3 -3 22 7 42 21
29 20 40 24 49 15 9 -9 9 -12 -1 -12 -8 0 -10 -7 -5 -22 6 -20 5 -21 -10 -9
-14 12 -16 11 -16 -3 0 -9 6 -19 14 -22 8 -3 12 -13 8 -26 -5 -21 -5 -21 16
-2 32 30 51 44 57 44 11 0 4 -26 -15 -50 -21 -27 -25 -40 -12 -40 5 0 17 16
28 35 21 40 20 39 54 20 l25 -14 -26 -1 c-24 0 -27 -4 -27 -35 0 -19 5 -35 10
-35 6 0 8 7 4 15 -3 8 -3 15 0 15 2 0 9 -10 13 -22 9 -22 10 -21 25 15 14 31
21 37 46 37 16 0 32 -5 35 -11 11 -17 -3 -23 -20 -9 -19 16 -41 -1 -32 -24 7
-18 27 -22 27 -6 0 6 5 10 10 10 6 0 10 -15 11 -32 0 -28 2 -30 9 -13 5 11 9
34 10 50 1 27 2 28 14 13 7 -10 17 -14 21 -10 5 4 5 -1 2 -10 -3 -10 -2 -20 3
-23 12 -7 23 32 14 47 -6 10 -4 9 9 0 9 -8 18 -30 20 -50 3 -33 4 -32 5 11 2
44 4 47 29 47 26 0 26 -1 7 -15 -19 -15 -19 -15 0 -30 11 -8 14 -15 8 -15 -7
0 -12 -5 -12 -11 0 -6 7 -8 17 -5 9 4 20 1 25 -6 4 -8 8 6 8 35 0 29 4 47 12
47 29 0 -8 14 -52 20 -39 5 -50 3 -50 -7 0 -8 -5 -11 -12 -7 -6 4 -33 9 -60
11 -78 6 -142 34 -146 63 -7 47 -62 81 -75 48 -4 -8 -8 -4 -12 10 -4 12 -11
22 -16 22 -12 0 -41 71 -35 87 3 7 1 13 -4 13 -5 0 -10 29 -12 64 -2 52 -6 62
-18 56z m-40 -56 c0 -8 -5 -12 -10 -9 -6 4 -8 11 -5 16 9 14 15 11 15 -7z m54
-155 c-6 -11 -24 -2 -24 11 0 5 7 7 15 4 8 -4 12 -10 9 -15z m128 -56 c20 -18
24 -33 8 -33 -5 0 -10 7 -10 15 0 7 -8 19 -17 24 -10 6 -14 11 -9 11 5 0 18
-7 28 -17z m68 -117 c0 -11 -19 -15 -25 -6 -3 5 1 10 9 10 9 0 16 -2 16 -4z
m260 -32 c0 -8 -4 -12 -10 -9 -5 3 -10 10 -10 16 0 5 5 9 10 9 6 0 10 -7 10
-16z"/>
<path d="M1330 475 c0 -59 -21 -135 -37 -135 -7 0 -10 -6 -7 -14 3 -9 -12 -34
-36 -60 -39 -42 -45 -45 -79 -40 -43 7 -75 -15 -64 -43 4 -11 3 -14 -5 -9 -7
4 -12 1 -12 -7 0 -10 -14 -13 -57 -11 -32 1 -71 3 -86 3 -18 1 -26 5 -21 12 3
6 20 9 37 6 27 -4 28 -3 12 10 -26 18 -42 16 -66 -8 -15 -15 -18 -24 -10 -32
6 -6 11 -28 11 -48 0 -21 5 -41 10 -44 6 -4 10 12 10 39 0 44 1 46 28 45 27 0
27 0 4 -11 -25 -13 -24 -31 3 -36 10 -2 15 0 11 6 -3 6 -1 14 5 18 9 5 10 1 7
-14 -3 -12 0 -29 8 -39 12 -16 13 -13 14 30 0 33 4 47 14 47 8 0 13 -8 12 -17
-1 -13 5 -17 23 -15 17 1 22 -2 18 -12 -4 -9 4 -21 19 -30 27 -19 29 -14 15
47 -12 49 5 59 24 13 8 -19 19 -38 25 -41 6 -4 3 12 -6 35 -14 36 -15 43 -3
51 21 13 26 11 25 -13 -1 -18 4 -22 21 -20 12 2 32 -2 43 -8 19 -10 19 -7 -6
30 -29 43 -26 64 4 37 25 -23 42 -21 42 5 0 20 1 21 20 3 32 -29 32 -13 0 21
-37 40 -26 62 18 37 17 -10 33 -25 36 -33 2 -8 4 -5 5 7 1 15 -8 27 -29 38
-16 9 -30 20 -30 25 0 15 27 12 61 -6 17 -8 33 -13 36 -10 4 3 -10 12 -30 21
-19 8 -39 20 -42 26 -10 16 3 25 17 11 30 -30 61 8 32 39 -16 17 -14 18 22 14
l39 -5 -46 15 c-39 13 -46 19 -42 36 4 15 8 17 20 8 10 -9 17 -9 25 -1 6 6 16
8 23 6 9 -4 12 3 11 20 -1 21 -6 26 -29 26 -16 0 -37 5 -48 10 -17 10 -19 7
-19 -35z m60 5 c0 -12 -8 -12 -35 0 -18 8 -17 9 8 9 15 1 27 -3 27 -9z m-130
-255 c0 -8 -4 -15 -10 -15 -5 0 -10 7 -10 15 0 8 5 15 10 15 6 0 10 -7 10 -15z
m-80 -13 c0 -10 -50 -35 -57 -29 -2 3 3 12 12 21 17 17 45 22 45 8z m40 -52
c0 -5 -4 -10 -10 -10 -5 0 -10 5 -10 10 0 6 5 10 10 10 6 0 10 -4 10 -10z"/>
</g>
</svg>
