<?xml version="1.0" standalone="no"?>
<!DOCTYPE svg PUBLIC "-//W3C//DTD SVG 20010904//EN"
 "http://www.w3.org/TR/2001/REC-SVG-20010904/DTD/svg10.dtd">
<svg version="1.0" xmlns="http://www.w3.org/2000/svg"
 width="300.000000pt" height="332.000000pt" viewBox="0 0 300.000000 332.000000"
 preserveAspectRatio="xMidYMid meet">

<g transform="translate(0.000000,332.000000) scale(0.100000,-0.100000)"
fill="#000000" stroke="none">
<path d="M682 2908 c2 -19 25 -31 138 -75 l135 -52 -137 -1 -138 0 0 -24 c0
-26 -3 -24 168 -87 31 -12 61 -25 67 -30 5 -5 -43 -9 -113 -9 l-122 0 0 -415
c0 -228 2 -415 4 -415 2 0 66 83 141 185 75 102 141 185 146 183 10 -4 139
-180 139 -191 0 -4 -41 -62 -91 -129 l-91 -120 -77 4 c-47 3 -94 13 -123 26
l-48 21 0 -34 c0 -32 2 -34 58 -51 40 -13 89 -18 167 -18 103 0 116 2 205 38
316 125 399 130 631 36 170 -69 193 -74 314 -74 90 0 121 5 168 23 54 21 57
24 57 56 l0 34 -48 -24 c-27 -14 -80 -28 -120 -33 l-73 -8 -95 127 -95 128 71
96 c39 53 75 95 80 93 4 -2 63 -75 130 -163 67 -88 131 -169 142 -180 l20 -20
-6 64 c-3 35 -6 221 -6 412 l0 348 -122 3 -123 3 125 50 c103 41 126 54 128
72 3 22 1 22 -135 25 l-138 3 133 50 c116 44 132 52 132 72 l0 23 -347 -2
-348 -3 343 -2 c295 -3 342 -5 342 -18 0 -13 -46 -15 -344 -15 l-344 0 -30
-25 c-16 -13 -35 -38 -42 -55 -17 -42 -41 -37 -66 15 -11 24 -16 41 -10 38 6
-3 8 -2 3 2 -14 16 -51 18 -399 22 -298 3 -348 6 -348 18 0 13 46 15 343 13
l342 -3 -330 -5 -330 -6 353 -1 c324 -1 354 -2 373 -19 11 -10 17 -25 14 -34
-3 -10 1 -23 10 -30 8 -7 12 -17 8 -22 -3 -6 0 -9 7 -6 8 2 16 10 18 18 3 7 0
10 -6 6 -5 -3 -12 0 -15 8 -3 8 1 17 9 20 8 3 14 1 14 -5 0 -6 5 -7 11 -3 8 5
8 8 0 14 -9 5 -8 10 4 20 11 9 15 9 15 1 0 -7 5 -9 11 -5 8 5 8 9 -1 14 -15 9
2 22 22 17 7 -2 9 -2 4 1 -4 2 -2 8 5 13 10 6 11 9 2 9 -7 0 -31 -16 -53 -36
l-40 -36 -22 27 c-41 53 -58 55 -433 55 l-346 0 3 -22z m570 -285 c-62 -2
-161 -2 -220 0 -59 1 -8 3 113 3 121 0 169 -2 107 -3z m671 0 c-62 -2 -164 -2
-225 0 -62 1 -12 3 112 3 124 0 174 -2 113 -3z m-379 -38 c-9 -14 -18 -25 -21
-25 -5 0 5 18 20 38 17 22 18 13 1 -13z m-43 -122 c13 -16 12 -17 -3 -4 -10 7
-18 15 -18 17 0 8 8 3 21 -13z m-41 -17 c0 -2 -8 -10 -17 -17 -16 -13 -17 -12
-4 4 13 16 21 21 21 13z m267 -396 c131 -175 244 -319 252 -320 8 0 11 -3 8
-7 -4 -3 -17 -2 -30 4 -47 22 -284 112 -327 124 -26 8 -96 13 -165 13 -130 0
-151 -6 -378 -97 l-88 -36 28 38 c204 276 449 600 455 601 3 0 113 -144 245
-320z m-377 247 c0 -2 -10 -12 -22 -23 l-23 -19 19 23 c18 21 26 27 26 19z
m-380 -21 c0 -2 -8 -10 -17 -17 -16 -13 -17 -12 -4 4 13 16 21 21 21 13z m711
-53 c13 -16 12 -17 -3 -4 -10 7 -18 15 -18 17 0 8 8 3 21 -13z m390 -30 c13
-16 12 -17 -3 -4 -10 7 -18 15 -18 17 0 8 8 3 21 -13z m-360 -10 c13 -16 12
-17 -3 -4 -10 7 -18 15 -18 17 0 8 8 3 21 -13z m-451 -7 c0 -2 -8 -10 -17 -17
-16 -13 -17 -12 -4 4 13 16 21 21 21 13z m481 -33 c13 -16 12 -17 -3 -4 -17
13 -22 21 -14 21 2 0 10 -8 17 -17z m-511 -7 c0 -2 -8 -10 -17 -17 -16 -13
-17 -12 -4 4 13 16 21 21 21 13z m-129 -23 c13 -16 12 -17 -3 -4 -17 13 -22
21 -14 21 2 0 10 -8 17 -17z m1030 0 c13 -16 12 -17 -3 -4 -17 13 -22 21 -14
21 2 0 10 -8 17 -17z m-1281 3 c0 -2 -8 -10 -17 -17 -16 -13 -17 -12 -4 4 13
16 21 21 21 13z m921 -13 c13 -16 12 -17 -3 -4 -17 13 -22 21 -14 21 2 0 10
-8 17 -17z m-571 -7 c0 -2 -8 -10 -17 -17 -16 -13 -17 -12 -4 4 13 16 21 21
21 13z m629 -33 c11 9 11 7 0 -10 -7 -12 -13 -21 -14 -20 0 1 -9 13 -20 27
l-20 25 21 -17 c16 -14 23 -15 33 -5z m-664 -13 c-3 -5 -12 -10 -18 -10 -7 0
-6 4 3 10 19 12 23 12 15 0z m-375 -14 c0 -2 -8 -10 -17 -17 -16 -13 -17 -12
-4 4 13 16 21 21 21 13z m-30 -40 c0 -2 -8 -10 -17 -17 -16 -13 -17 -12 -4 4
13 16 21 21 21 13z m1471 -13 c13 -16 12 -17 -3 -4 -10 7 -18 15 -18 17 0 8 8
3 21 -13z m-1501 -27 c0 -2 -8 -10 -17 -17 -16 -13 -17 -12 -4 4 13 16 21 21
21 13z m1531 -13 c13 -16 12 -17 -3 -4 -10 7 -18 15 -18 17 0 8 8 3 21 -13z"/>
<path d="M1668 2903 c46 -2 118 -2 160 0 42 1 5 3 -83 3 -88 0 -123 -2 -77 -3z"/>
<path d="M1998 2903 c46 -2 118 -2 160 0 42 1 5 3 -83 3 -88 0 -123 -2 -77 -3z"/>
<path d="M1387 1719 c-66 -9 -113 -24 -295 -94 -142 -55 -272 -57 -374 -6 -41
20 -46 15 -32 -36 9 -33 118 -56 242 -51 82 4 111 10 192 42 204 80 232 89
325 93 106 6 165 -7 323 -71 59 -24 131 -49 161 -56 72 -17 231 -8 296 17 45
17 50 22 53 52 3 29 1 33 -15 26 -115 -48 -119 -49 -218 -49 -98 -1 -102 0
-240 56 -187 75 -288 93 -418 77z"/>
<path d="M1380 1594 c-72 -13 -126 -30 -230 -71 -63 -25 -131 -50 -150 -54
-55 -14 -190 -11 -245 5 -27 9 -50 14 -51 13 -2 -1 4 -29 12 -62 19 -77 81
-193 116 -218 l26 -20 48 27 47 26 44 -25 45 -25 49 25 c65 34 66 10 0 -27
l-48 -26 -42 25 -43 25 -55 -25 c-30 -13 -50 -27 -45 -31 5 -3 28 4 50 16 l40
22 49 -23 50 -23 41 21 c47 24 52 25 52 11 0 -6 -16 -18 -35 -27 -19 -9 -35
-20 -35 -23 0 -3 16 -14 35 -23 19 -9 35 -21 35 -27 0 -14 -3 -13 -52 11 l-43
20 -53 -24 c-29 -14 -49 -28 -43 -32 6 -3 30 5 52 19 l42 24 48 -26 c66 -37
65 -61 0 -27 -49 24 -51 24 -80 7 -17 -9 -31 -20 -31 -23 0 -4 17 -18 39 -33
l38 -27 419 1 418 0 -39 -30 -40 -29 -330 0 c-332 0 -369 3 -358 35 2 7 -6 11
-21 10 -13 0 -22 -4 -20 -7 17 -28 309 -191 382 -214 46 -14 388 177 505 283
17 15 16 17 -18 35 -36 18 -36 18 -81 -7 -33 -19 -44 -21 -44 -10 0 8 20 24
45 36 l45 22 46 -23 c33 -15 50 -19 57 -12 8 8 6 11 -7 11 -9 0 -34 10 -56 22
l-38 23 -42 -24 c-23 -13 -44 -20 -48 -16 -7 6 25 37 51 49 9 5 9 7 0 12 -26
12 -58 43 -51 49 4 4 25 -3 48 -16 l41 -23 44 24 44 24 47 -22 c25 -13 49 -20
52 -17 3 3 3 6 1 8 -2 1 -24 13 -48 26 l-44 23 -49 -23 -49 -23 -44 22 c-25
12 -45 28 -45 36 0 11 11 9 45 -11 l45 -25 46 26 46 26 47 -24 c41 -21 49 -23
72 -10 34 17 91 127 118 224 12 41 21 75 21 76 0 1 -19 -7 -42 -19 -37 -19
-60 -22 -168 -22 l-125 0 -115 47 c-63 26 -140 54 -170 63 -54 16 -221 28
-270 19z m-510 -369 c0 -8 -4 -15 -10 -15 -5 0 -10 7 -10 15 0 8 5 15 10 15 6
0 10 -7 10 -15z m188 3 c-6 -18 -28 -21 -28 -4 0 9 7 16 16 16 9 0 14 -5 12
-12z m132 -98 c0 -91 -3 -110 -15 -110 -12 0 -15 19 -15 110 0 91 3 110 15
110 12 0 15 -19 15 -110z m50 0 c0 -91 -3 -110 -15 -110 -12 0 -15 19 -15 110
0 91 3 110 15 110 12 0 15 -19 15 -110z m70 90 c30 -15 45 -18 64 -10 15 5 26
14 26 20 0 5 7 10 15 10 8 0 15 -5 15 -10 0 -15 49 -32 71 -25 11 4 26 13 35
22 10 10 18 12 22 6 4 -5 17 -15 29 -22 19 -9 30 -8 62 9 48 24 51 24 51 5 0
-8 -11 -17 -25 -21 -14 -3 -25 -10 -25 -14 0 -4 11 -11 25 -14 21 -5 25 -12
25 -44 0 -32 -4 -40 -27 -48 l-28 -11 28 -13 c15 -7 27 -19 27 -27 0 -10 -10
-9 -40 7 -44 22 -84 19 -100 -9 -8 -15 -10 -15 -22 1 -22 29 -72 34 -97 9 -22
-22 -41 -27 -41 -11 0 23 -41 32 -81 16 -51 -20 -65 -21 -49 -1 7 8 19 15 26
15 23 0 16 16 -12 28 -21 10 -25 18 -22 45 2 22 10 35 26 42 28 13 28 19 -3
33 -14 6 -25 16 -25 22 0 14 5 13 50 -10z m440 -90 c0 -91 -3 -110 -15 -110
-12 0 -15 19 -15 110 0 91 3 110 15 110 12 0 15 -19 15 -110z m50 0 c0 -91 -3
-110 -15 -110 -12 0 -15 18 -15 103 0 57 3 107 7 110 18 19 23 -2 23 -103z
m130 95 c0 -8 -4 -15 -10 -15 -5 0 -10 7 -10 15 0 8 5 15 10 15 6 0 10 -7 10
-15z m190 -1 c0 -17 -22 -14 -28 4 -2 7 3 12 12 12 9 0 16 -7 16 -16z m-1060
-195 c0 -5 -7 -9 -15 -9 -15 0 -20 12 -9 23 8 8 24 -1 24 -14z m870 6 c0 -8
-4 -15 -10 -15 -5 0 -10 7 -10 15 0 8 5 15 10 15 6 0 10 -7 10 -15z"/>
<path d="M1395 1191 c-3 -5 -1 -12 4 -15 13 -8 42 4 35 15 -7 12 -31 12 -39 0z"/>
<path d="M1526 1191 c-8 -12 20 -22 40 -14 13 5 13 7 2 14 -17 11 -35 11 -42
0z"/>
<path d="M1306 1157 c-25 -19 -16 -49 17 -60 37 -12 77 5 77 32 0 36 -59 53
-94 28z m54 -27 c0 -5 -7 -10 -15 -10 -8 0 -15 5 -15 10 0 6 7 10 15 10 8 0
15 -4 15 -10z"/>
<path d="M1443 1160 c-33 -13 -29 -45 7 -60 24 -10 36 -10 60 0 38 16 40 47 4
60 -30 12 -42 12 -71 0z m47 -30 c0 -5 -4 -10 -10 -10 -5 0 -10 5 -10 10 0 6
5 10 10 10 6 0 10 -4 10 -10z"/>
<path d="M1578 1159 c-27 -15 -22 -48 9 -60 36 -14 72 -3 82 24 7 17 4 25 -13
34 -26 15 -55 16 -78 2z m52 -29 c0 -5 -7 -10 -16 -10 -8 0 -12 5 -9 10 3 6
10 10 16 10 5 0 9 -4 9 -10z"/>
<path d="M1392 1081 c-11 -7 -11 -9 2 -14 20 -8 48 2 40 14 -7 11 -25 11 -42
0z"/>
<path d="M1532 1081 c-11 -7 -11 -9 2 -14 9 -4 23 -4 32 0 13 5 13 7 2 14 -7
5 -15 9 -18 9 -3 0 -11 -4 -18 -9z"/>
<path d="M663 1173 c-6 -21 -19 -56 -28 -77 l-16 -39 -90 6 -89 6 22 -42 c11
-23 33 -61 49 -83 16 -23 25 -45 21 -49 -7 -8 25 9 131 69 26 15 55 25 65 23
12 -3 11 -5 -5 -6 -13 0 -23 -3 -23 -7 0 -17 87 -128 141 -179 61 -58 60 -57
-10 18 l-73 77 46 36 46 35 -54 67 c-29 37 -68 93 -86 125 -17 31 -33 57 -34
57 0 0 -6 -17 -13 -37z m160 -200 c-7 -2 -21 -2 -30 0 -10 3 -4 5 12 5 17 0
24 -2 18 -5z"/>
<path d="M2266 1173 c-23 -48 -96 -150 -130 -182 l-26 -24 38 -33 c47 -42 67
-42 92 -1 24 39 25 44 3 50 -16 4 -16 5 1 6 11 0 27 -5 35 -12 9 -8 57 -35
106 -61 50 -26 79 -38 66 -28 l-24 19 20 29 c11 16 35 53 52 82 l31 52 -83 -6
c-45 -3 -87 -7 -93 -9 -6 -2 -17 14 -23 36 -6 21 -20 57 -29 80 l-18 41 -18
-39z m-86 -197 c0 -2 -13 -6 -29 -8 -17 -2 -28 -1 -25 4 5 8 54 12 54 4z"/>
<path d="M918 1152 c-16 -10 -28 -19 -28 -22 0 -3 14 -13 30 -22 29 -16 33
-16 65 -1 19 9 35 20 35 23 0 5 -67 42 -73 39 -1 0 -14 -8 -29 -17z m52 -22
c0 -5 -7 -10 -15 -10 -8 0 -15 5 -15 10 0 6 7 10 15 10 8 0 15 -4 15 -10z"/>
<path d="M1978 1152 c-16 -10 -28 -19 -28 -22 0 -3 14 -13 30 -22 29 -16 33
-16 65 -1 19 9 35 20 35 23 0 5 -67 42 -73 39 -1 0 -14 -8 -29 -17z m52 -22
c0 -5 -7 -10 -15 -10 -8 0 -15 5 -15 10 0 6 7 10 15 10 8 0 15 -4 15 -10z"/>
<path d="M1820 949 c0 -5 5 -7 10 -4 6 3 10 8 10 11 0 2 -4 4 -10 4 -5 0 -10
-5 -10 -11z"/>
<path d="M842 876 c1 -14 5 -23 9 -20 7 4 0 44 -7 44 -2 0 -3 -11 -2 -24z"/>
<path d="M2120 802 c-63 -65 -71 -75 -31 -41 46 38 132 131 120 128 -2 0 -42
-40 -89 -87z"/>
<path d="M473 868 c-25 -12 -29 -23 -13 -33 6 -4 9 -2 8 4 -2 5 6 17 17 25 23
18 19 19 -12 4z"/>
<path d="M593 864 c-18 -9 -35 -25 -38 -36 -7 -21 12 -51 26 -42 14 8 10 24
-6 24 -22 0 -18 17 7 34 31 22 64 20 88 -4 23 -23 19 -40 -11 -40 -10 0 -19
-4 -19 -10 0 -5 7 -10 15 -10 8 0 15 -7 15 -15 0 -22 21 -18 27 5 3 11 9 17
14 14 17 -10 9 -27 -33 -66 -47 -44 -35 -42 24 4 21 16 42 27 48 23 5 -3 10 1
10 10 0 11 -5 15 -14 12 -8 -3 -16 2 -19 14 -3 10 -12 19 -21 19 -9 0 -13 6
-10 13 6 17 -24 53 -51 61 -11 3 -34 -2 -52 -10z"/>
<path d="M2095 862 c17 -11 32 -18 34 -15 8 6 -13 20 -39 28 -23 6 -22 5 5
-13z"/>
<path d="M2263 826 c-76 -97 -199 -193 -330 -260 -80 -40 -93 -43 -93 -22 0
18 13 27 54 37 l31 7 -36 1 c-40 1 -75 -28 -66 -53 4 -10 -4 -18 -24 -25 -16
-6 -29 -17 -29 -27 0 -13 -3 -14 -15 -4 -12 10 -18 10 -30 0 -8 -6 -18 -9 -24
-6 -5 3 -44 1 -86 -5 -87 -12 -114 -7 -95 16 15 18 53 19 83 3 19 -10 20 -9 9
4 -30 37 -112 24 -112 -16 0 -8 -6 -17 -12 -19 -8 -3 -6 -6 5 -6 14 -1 17 -11
17 -55 0 -30 5 -58 11 -61 7 -5 10 12 8 51 l-3 59 55 6 c29 3 56 5 57 3 2 -1
-10 -10 -26 -18 -46 -24 -47 -34 -5 -51 20 -9 41 -21 46 -28 5 -7 6 12 3 44
-5 48 -3 57 12 61 28 8 45 -2 32 -18 -16 -18 -3 -39 15 -24 7 6 17 10 21 9 23
-4 26 3 9 21 -16 18 -16 20 -2 20 9 0 21 -8 26 -18 7 -14 5 -21 -10 -30 -25
-16 -25 -42 0 -42 11 0 26 -3 34 -6 14 -5 14 0 1 48 -18 69 -19 64 17 77 38
13 39 13 39 2 0 -14 41 -103 46 -98 3 2 -5 25 -16 51 -11 26 -20 51 -20 55 0
4 20 17 45 29 50 24 54 22 25 -15 -27 -35 -25 -43 11 -43 17 0 39 -5 50 -10
24 -13 24 -11 -3 45 -16 34 -19 48 -11 56 9 9 19 4 40 -21 l27 -33 9 33 9 34
20 -32 c11 -18 24 -32 30 -32 5 0 0 12 -11 26 -12 15 -21 33 -21 40 0 24 -29
15 -36 -11 -5 -20 -9 -23 -20 -14 -22 18 -17 26 30 59 50 34 56 36 56 17 0 -8
12 -24 26 -38 15 -14 23 -31 21 -41 -3 -10 -1 -16 4 -12 17 10 9 40 -16 64
-25 24 -33 54 -16 65 5 3 26 -15 47 -40 20 -25 39 -43 42 -41 3 3 -12 24 -32
46 -20 22 -36 43 -35 48 1 11 79 76 84 70 3 -3 -6 -17 -21 -31 -34 -34 -29
-62 11 -62 30 0 43 24 18 33 -7 2 -13 -3 -13 -12 0 -20 -16 -21 -23 -2 -7 18
1 26 24 26 12 0 16 5 13 15 -9 23 11 18 45 -11 46 -38 38 -20 -10 23 -38 34
-39 38 -23 50 25 18 34 16 34 -8 0 -18 4 -20 23 -14 12 3 35 10 52 14 l29 7
-46 33 c-29 20 -44 39 -41 47 9 25 -1 15 -44 -40z m72 -11 c17 -14 25 -25 18
-25 -6 0 -18 -3 -27 -6 -11 -4 -16 -1 -16 10 0 10 -8 16 -21 16 -18 0 -19 2
-9 15 16 19 19 19 55 -10z m-361 -301 c9 -23 8 -24 -19 -24 -23 0 -24 2 -15
20 13 24 26 26 34 4z m-334 -93 c0 -5 3 -17 6 -26 6 -14 3 -14 -20 -4 -20 9
-23 15 -15 26 13 15 29 17 29 4z m150 -21 c0 -5 -4 -10 -9 -10 -6 0 -13 5 -16
10 -3 6 1 10 9 10 9 0 16 -4 16 -10z"/>
<path d="M870 845 c-13 -14 -19 -25 -13 -25 12 0 48 38 41 45 -2 3 -15 -6 -28
-20z"/>
<path d="M905 820 c-10 -11 -16 -22 -13 -25 3 -3 13 4 23 15 10 11 16 22 13
25 -3 3 -13 -4 -23 -15z"/>
<path d="M2050 815 c13 -14 26 -23 28 -20 7 7 -29 45 -41 45 -6 0 0 -11 13
-25z"/>
<path d="M2475 804 c-9 -15 -12 -23 -6 -20 11 7 35 46 28 46 -3 0 -12 -12 -22
-26z"/>
<path d="M936 796 c-23 -36 -20 -44 5 -12 12 15 19 29 16 32 -2 2 -12 -7 -21
-20z"/>
<path d="M2010 785 c13 -14 25 -25 27 -25 2 0 -4 11 -13 25 -9 14 -21 25 -27
25 -6 0 0 -11 13 -25z"/>
<path d="M520 749 c18 -26 48 -62 68 -80 l36 -34 -39 45 c-22 25 -53 61 -68
80 -24 30 -24 28 3 -11z"/>
<path d="M993 768 c-20 -26 -26 -41 -15 -34 12 7 36 46 29 46 -3 0 -9 -6 -14
-12z"/>
<path d="M1955 760 c3 -4 16 -10 30 -12 13 -3 22 -2 20 2 -3 4 -16 10 -30 12
-13 3 -22 2 -20 -2z"/>
<path d="M2410 715 c-54 -70 -141 -151 -228 -211 -74 -53 -103 -77 -57 -50
103 63 251 197 314 284 37 53 16 36 -29 -23z"/>
<path d="M1015 728 c-13 -24 -15 -30 -3 -21 8 7 17 11 19 9 2 -2 5 7 5 20 1
13 1 24 0 24 -1 0 -10 -15 -21 -32z"/>
<path d="M2345 750 c4 -6 11 -8 16 -5 14 9 11 15 -7 15 -8 0 -12 -5 -9 -10z"/>
<path d="M910 736 c0 -2 8 -10 18 -17 15 -13 16 -12 3 4 -13 16 -21 21 -21 13z"/>
<path d="M1902 716 c6 -14 15 -26 20 -26 10 0 -7 36 -22 45 -6 4 -5 -5 2 -19z"/>
<path d="M757 723 c-10 -9 13 -33 31 -33 12 0 13 -3 5 -11 -8 -8 -17 -8 -33 1
-21 11 -22 11 -15 -11 4 -13 8 -39 8 -58 l0 -34 42 45 c23 24 48 42 56 40 11
-4 12 -2 2 9 -11 11 -19 7 -47 -20 -31 -30 -34 -31 -39 -12 -4 15 1 21 17 23
25 4 37 48 12 48 -9 0 -16 5 -16 10 0 11 -13 13 -23 3z"/>
<path d="M1081 693 c-10 -26 -10 -27 4 -9 8 11 15 23 15 28 0 15 -7 8 -19 -19z"/>
<path d="M1930 716 c0 -2 7 -7 16 -10 8 -3 12 -2 9 4 -6 10 -25 14 -25 6z"/>
<path d="M954 701 c7 -11 46 -35 46 -28 0 3 -12 12 -26 22 -15 9 -23 12 -20 6z"/>
<path d="M1846 685 c9 -14 18 -25 20 -25 2 0 -2 11 -8 25 -6 14 -15 25 -20 25
-5 0 -1 -11 8 -25z"/>
<path d="M1035 690 c3 -5 8 -10 11 -10 2 0 4 5 4 10 0 6 -5 10 -11 10 -5 0 -7
-4 -4 -10z"/>
<path d="M1120 679 c-7 -11 -10 -23 -7 -25 2 -2 9 7 15 21 14 30 7 33 -8 4z"/>
<path d="M1182 651 c-6 -17 -9 -31 -6 -31 7 0 25 52 20 57 -2 2 -8 -10 -14
-26z"/>
<path d="M1785 660 c10 -11 20 -20 23 -20 3 0 -3 9 -13 20 -10 11 -20 20 -23
20 -3 0 3 -9 13 -20z"/>
<path d="M1944 664 c-18 -14 -18 -15 4 -4 12 6 22 13 22 15 0 8 -5 6 -26 -11z"/>
<path d="M1742 639 c6 -16 12 -29 13 -27 6 6 -8 58 -16 58 -4 0 -3 -14 3 -31z"/>
<path d="M1030 655 c0 -7 61 -37 66 -33 2 3 -12 12 -31 21 -19 9 -35 15 -35
12z"/>
<path d="M1223 643 c-3 -10 -8 -21 -10 -25 -2 -5 0 -8 5 -8 5 0 12 11 14 25 6
29 0 33 -9 8z"/>
<path d="M1277 643 c-2 -5 -1 -19 4 -33 7 -23 7 -23 8 8 1 31 -3 40 -12 25z"/>
<path d="M1685 626 c17 -13 32 -22 34 -20 5 5 -42 43 -54 44 -5 0 4 -11 20
-24z"/>
<path d="M1320 633 c0 -6 7 -16 15 -23 8 -7 12 -17 8 -23 -4 -6 -1 -7 6 -3 9
6 8 13 -6 29 -10 12 -19 24 -20 26 -2 2 -3 0 -3 -6z"/>
<path d="M1587 615 c6 -32 11 -41 17 -34 2 2 -2 18 -10 34 l-13 30 6 -30z"/>
<path d="M929 606 c21 -22 22 -26 7 -26 -10 0 -16 -6 -13 -12 2 -7 14 -12 25
-10 15 2 22 -2 22 -14 0 -14 -7 -16 -40 -11 -22 3 -40 4 -40 2 0 -1 14 -19 30
-40 30 -38 39 -40 20 -5 -8 15 -5 19 15 24 27 7 33 34 13 54 -15 15 -6 15 27
0 31 -14 31 -14 0 -63 -13 -22 -24 -47 -24 -55 0 -8 13 11 31 42 28 52 32 56
52 46 11 -6 22 -12 24 -13 1 -1 -7 -23 -19 -49 -11 -26 -18 -50 -16 -53 3 -3
15 18 28 46 12 28 23 51 26 51 12 0 53 -34 53 -45 0 -20 -27 -39 -33 -23 -4 8
-6 7 -6 -4 -1 -20 33 -25 44 -8 3 6 13 10 22 10 15 0 14 -19 -4 -66 -4 -11 -3
-15 4 -11 6 4 14 18 17 31 18 73 20 74 76 63 46 -9 51 -12 45 -31 -4 -12 -9
-39 -12 -61 -6 -58 14 -24 22 38 5 37 11 47 22 43 8 -3 18 -6 23 -6 5 0 7 -26
4 -57 -3 -41 -2 -52 5 -38 5 11 10 37 10 58 1 21 6 37 13 37 32 0 -8 11 -88
25 -116 20 -214 53 -214 71 0 24 49 16 77 -13 22 -24 24 -24 14 -5 -20 37 -58
57 -86 44 -14 -7 -25 -17 -25 -23 0 -6 -39 10 -87 36 -73 39 -84 42 -64 21z
m272 -129 c-1 -4 -1 -12 -1 -17 0 -6 -8 -5 -20 2 -27 17 -27 40 1 30 11 -5 20
-11 20 -15z"/>
<path d="M1382 600 c0 -19 2 -27 5 -17 2 9 2 25 0 35 -3 9 -5 1 -5 -18z"/>
<path d="M1440 602 c12 -18 24 -31 27 -28 3 2 -7 17 -22 33 l-28 28 23 -33z"/>
<path d="M675 580 c21 -22 41 -40 44 -40 3 0 -13 18 -34 40 -21 22 -41 40 -44
40 -3 0 13 -18 34 -40z"/>
<path d="M1521 600 c14 -31 19 -36 19 -24 0 6 -7 19 -16 30 -14 18 -14 18 -3
-6z"/>
<path d="M1830 610 c-8 -5 -10 -10 -5 -10 6 0 17 5 25 10 8 5 11 10 5 10 -5 0
-17 -5 -25 -10z"/>
<path d="M1188 583 c7 -3 16 -2 19 1 4 3 -2 6 -13 5 -11 0 -14 -3 -6 -6z"/>
<path d="M1258 563 c7 -3 16 -2 19 1 4 3 -2 6 -13 5 -11 0 -14 -3 -6 -6z"/>
<path d="M1688 563 c7 -3 16 -2 19 1 4 3 -2 6 -13 5 -11 0 -14 -3 -6 -6z"/>
<path d="M1308 553 c6 -2 18 -2 25 0 6 3 1 5 -13 5 -14 0 -19 -2 -12 -5z"/>
<path d="M1638 553 c6 -2 18 -2 25 0 6 3 1 5 -13 5 -14 0 -19 -2 -12 -5z"/>
<path d="M1373 543 c9 -2 25 -2 35 0 9 3 1 5 -18 5 -19 0 -27 -2 -17 -5z"/>
<path d="M1553 543 c9 -2 25 -2 35 0 9 3 1 5 -18 5 -19 0 -27 -2 -17 -5z"/>
<path d="M757 513 c17 -15 46 -37 65 -47 45 -26 25 -8 -42 38 -40 27 -46 29
-23 9z"/>
<path d="M860 446 c0 -3 9 -10 20 -16 11 -6 20 -8 20 -6 0 3 -9 10 -20 16 -11
6 -20 8 -20 6z"/>
<path d="M1247 434 c-12 -13 -7 -34 8 -34 8 0 15 7 15 16 0 14 2 15 17 3 14
-12 16 -12 11 1 -5 16 -39 25 -51 14z"/>
<path d="M2030 410 c-19 -11 -31 -19 -27 -20 11 0 67 29 67 35 0 7 -1 7 -40
-15z"/>
<path d="M980 380 c8 -5 20 -10 25 -10 6 0 3 5 -5 10 -8 5 -19 10 -25 10 -5 0
-3 -5 5 -10z"/>
<path d="M1890 350 c-8 -5 -10 -10 -5 -10 6 0 17 5 25 10 8 5 11 10 5 10 -5 0
-17 -5 -25 -10z"/>
<path d="M1778 313 c7 -3 16 -2 19 1 4 3 -2 6 -13 5 -11 0 -14 -3 -6 -6z"/>
<path d="M1218 303 c7 -3 16 -2 19 1 4 3 -2 6 -13 5 -11 0 -14 -3 -6 -6z"/>
<path d="M1738 303 c7 -3 16 -2 19 1 4 3 -2 6 -13 5 -11 0 -14 -3 -6 -6z"/>
<path d="M1268 293 c7 -3 16 -2 19 1 4 3 -2 6 -13 5 -11 0 -14 -3 -6 -6z"/>
<path d="M1678 293 c7 -3 16 -2 19 1 4 3 -2 6 -13 5 -11 0 -14 -3 -6 -6z"/>
<path d="M1333 283 c9 -2 25 -2 35 0 9 3 1 5 -18 5 -19 0 -27 -2 -17 -5z"/>
<path d="M1603 283 c9 -2 23 -2 30 0 6 3 -1 5 -18 5 -16 0 -22 -2 -12 -5z"/>
<path d="M1463 273 c9 -2 25 -2 35 0 9 3 1 5 -18 5 -19 0 -27 -2 -17 -5z"/>
</g>
</svg>
